<svg width="24" height="24" viewBox="0 0 24 24" fill="none" xmlns="http://www.w3.org/2000/svg">
<path fill-rule="evenodd" clip-rule="evenodd" d="M10.3938 4.65853C11.9941 4.3402 13.6529 4.50357 15.1604 5.128C16.6679 5.75242 17.9564 6.80984 18.8629 8.16655C19.7694 9.52325 20.2533 11.1183 20.2533 12.75C20.2533 14.938 19.3841 17.0365 17.8369 18.5836C16.2898 20.1308 14.1913 21 12.0033 21C10.3716 21 8.77655 20.5161 7.41984 19.6096C6.06314 18.7031 5.00572 17.4146 4.38129 15.9071C3.75687 14.3997 3.59349 12.7409 3.91182 11.1405C4.23015 9.54017 5.01589 8.07016 6.16967 6.91637C7.32345 5.76259 8.79346 4.97685 10.3938 4.65853ZM14.5864 6.51382C13.353 6.00293 11.9958 5.86925 10.6864 6.1297C9.37707 6.39015 8.17433 7.03303 7.23033 7.97703C6.28632 8.92104 5.64345 10.1238 5.383 11.4331C5.12255 12.7425 5.25622 14.0997 5.76711 15.3331C6.278 16.5665 7.14317 17.6207 8.2532 18.3624C9.36323 19.1041 10.6683 19.5 12.0033 19.5C13.7935 19.5 15.5104 18.7888 16.7763 17.523C18.0421 16.2571 18.7533 14.5402 18.7533 12.75C18.7533 11.415 18.3574 10.1099 17.6157 8.9999C16.874 7.88987 15.8198 7.02471 14.5864 6.51382Z" fill="#F28A2E"/>
<path fill-rule="evenodd" clip-rule="evenodd" d="M5.24107 2.99994L5.25361 3C5.94919 3.00333 6.62102 3.25337 7.14952 3.70562L6.6619 4.27546L7.15336 3.70892C7.25678 3.79863 7.3406 3.90869 7.3996 4.03224C7.45831 4.15516 7.49118 4.28881 7.49621 4.42491C7.50145 4.56157 7.47866 4.69787 7.42924 4.82541C7.37957 4.95359 7.30406 5.07019 7.2074 5.16795L7.20355 5.17184L4.37563 7.9495C4.30248 8.0313 4.21484 8.09923 4.1169 8.14974C3.99399 8.21313 3.85813 8.2474 3.71985 8.24987L3.71314 8.24999H3.63432L3.60357 8.24746C3.4694 8.2364 3.33903 8.19733 3.22088 8.13279C3.10519 8.06959 3.00372 7.98332 2.92275 7.87936L2.92005 7.87596C2.78044 7.69955 2.60087 7.47266 2.469 7.18932C2.3269 6.88398 2.25342 6.54749 2.2533 6.14157C2.24959 4.52093 3.43945 3.10363 5.07412 3.0051L5.08592 3.00439L5.24107 2.99994ZM5.67744 4.56827C5.54263 4.52516 5.40124 4.50189 5.25767 4.50008L5.15385 4.50306C4.39804 4.55449 3.75095 5.23267 3.7533 6.13867L3.7533 6.13964V6.14062C3.7533 6.26494 3.76549 6.35663 3.78358 6.42847L5.67744 4.56827Z" fill="#F28A2E"/>
<path fill-rule="evenodd" clip-rule="evenodd" d="M18.7589 2.99994L18.9141 3.00439L18.9259 3.0051C20.5606 3.10363 21.7504 4.52095 21.7467 6.14159C21.7466 6.54751 21.6731 6.88399 21.531 7.18932C21.3991 7.47265 21.2196 7.69954 21.0799 7.87596L21.0768 7.87994C20.9955 7.98403 20.8936 8.07031 20.7775 8.13339C20.6594 8.19756 20.5291 8.23629 20.3951 8.2471L20.365 8.24952H20.2869L20.2802 8.2494C20.1419 8.24693 20.006 8.21267 19.8831 8.14927C19.7852 8.09876 19.6975 8.03084 19.6244 7.94906L16.7965 5.17186L16.7926 5.16795C16.6959 5.07019 16.6204 4.95359 16.5708 4.82541C16.5213 4.69786 16.4985 4.56155 16.5038 4.42488C16.5088 4.28877 16.5417 4.15514 16.6004 4.03224C16.6594 3.9087 16.7432 3.79864 16.8466 3.70892L17.3381 4.27546L16.8505 3.70562C17.379 3.25337 18.0508 3.00333 18.7464 3L18.7589 2.99994ZM18.3226 4.56825L20.2165 6.42816C20.2345 6.35636 20.2467 6.26476 20.2467 6.14062V6.13964L20.2467 6.13867C20.249 5.23267 19.602 4.55449 18.8461 4.50306L18.7423 4.50008C18.5988 4.50189 18.4574 4.52516 18.3226 4.56825Z" fill="#F28A2E"/>
<path fill-rule="evenodd" clip-rule="evenodd" d="M12.0033 6.75C12.4175 6.75 12.7533 7.08579 12.7533 7.5V12.75C12.7533 13.1642 12.4175 13.5 12.0033 13.5H8.2533C7.83908 13.5 7.5033 13.1642 7.5033 12.75C7.5033 12.3358 7.83908 12 8.2533 12H11.2533V7.5C11.2533 7.08579 11.5891 6.75 12.0033 6.75Z" fill="#F28A2E"/>
<path fill-rule="evenodd" clip-rule="evenodd" d="M17.098 17.8447C17.3909 17.5518 17.8657 17.5518 18.1586 17.8447L20.0336 19.7197C20.3265 20.0126 20.3265 20.4874 20.0336 20.7803C19.7407 21.0732 19.2659 21.0732 18.973 20.7803L17.098 18.9053C16.8051 18.6124 16.8051 18.1376 17.098 17.8447Z" fill="#F28A2E"/>
<path fill-rule="evenodd" clip-rule="evenodd" d="M6.90863 17.8447C7.20152 18.1376 7.20152 18.6124 6.90863 18.9053L5.03363 20.7803C4.74073 21.0732 4.26586 21.0732 3.97297 20.7803C3.68007 20.4874 3.68007 20.0126 3.97297 19.7197L5.84797 17.8447C6.14086 17.5518 6.61573 17.5518 6.90863 17.8447Z" fill="#F28A2E"/>
</svg>
