<svg width="30" height="32" viewBox="0 0 30 32" fill="none" xmlns="http://www.w3.org/2000/svg">
<path fill-rule="evenodd" clip-rule="evenodd" d="M0.675908 9.81233C1.10868 9.38367 1.69565 9.14286 2.30769 9.14286H27.6923C28.3043 9.14286 28.8913 9.38367 29.3241 9.81233C29.7569 10.241 30 10.8224 30 11.4286V26.9464C30 29.7708 27.5917 32 24.8077 32H5.19231C2.37429 32 0 29.6483 0 26.8571V11.4286C0 10.8224 0.243132 10.241 0.675908 9.81233ZM27.6923 11.4286H2.30769L2.30769 26.8571C2.30769 28.386 3.64879 29.7143 5.19231 29.7143H24.8077C26.3852 29.7143 27.6923 28.4421 27.6923 26.9464V11.4286Z" fill="#F28A2E"/>
<path fill-rule="evenodd" clip-rule="evenodd" d="M15 2.28571C13.4699 2.28571 12.0025 2.88775 10.9205 3.95939C9.8386 5.03103 9.23077 6.48448 9.23077 8V10.2857C9.23077 10.9169 8.71418 11.4286 8.07692 11.4286C7.43967 11.4286 6.92308 10.9169 6.92308 10.2857V8C6.92308 5.87827 7.77404 3.84344 9.28875 2.34315C10.8035 0.842855 12.8579 0 15 0C17.1421 0 19.1965 0.842855 20.7112 2.34315C22.226 3.84344 23.0769 5.87827 23.0769 8V10.2857C23.0769 10.9169 22.5603 11.4286 21.9231 11.4286C21.2858 11.4286 20.7692 10.9169 20.7692 10.2857V8C20.7692 6.48448 20.1614 5.03103 19.0795 3.95939C17.9975 2.88775 16.5301 2.28571 15 2.28571Z" fill="#F28A2E"/>
<path fill-rule="evenodd" clip-rule="evenodd" d="M8.07692 12.5714C8.71418 12.5714 9.23077 13.0831 9.23077 13.7143V14.8571C9.23077 16.3727 9.8386 17.8261 10.9205 18.8978C12.0025 19.9694 13.4699 20.5714 15 20.5714C16.5301 20.5714 17.9975 19.9694 19.0795 18.8978C20.1614 17.8261 20.7692 16.3727 20.7692 14.8571V13.7143C20.7692 13.0831 21.2858 12.5714 21.9231 12.5714C22.5603 12.5714 23.0769 13.0831 23.0769 13.7143V14.8571C23.0769 16.9789 22.226 19.0137 20.7112 20.514C19.1965 22.0143 17.1421 22.8571 15 22.8571C12.8579 22.8571 10.8035 22.0143 9.28875 20.514C7.77404 19.0137 6.92308 16.9789 6.92308 14.8571V13.7143C6.92308 13.0831 7.43967 12.5714 8.07692 12.5714Z" fill="#F28A2E"/>
</svg>
