<svg width="24" height="24" viewBox="0 0 24 24" fill="none" xmlns="http://www.w3.org/2000/svg">
<path fill-rule="evenodd" clip-rule="evenodd" d="M2.25 12C2.25 6.61704 6.61704 2.25 12 2.25C17.383 2.25 21.75 6.61704 21.75 12C21.75 17.383 17.383 21.75 12 21.75C6.61704 21.75 2.25 17.383 2.25 12ZM12 3.75C7.44546 3.75 3.75 7.44546 3.75 12C3.75 16.5545 7.44546 20.25 12 20.25C16.5545 20.25 20.25 16.5545 20.25 12C20.25 7.44546 16.5545 3.75 12 3.75Z" fill="#F28A2E"/>
<path fill-rule="evenodd" clip-rule="evenodd" d="M9.59467 6.96967C9.88756 6.67678 10.3624 6.67678 10.6553 6.96967L15.1553 11.4697C15.4482 11.7626 15.4482 12.2374 15.1553 12.5303L10.6553 17.0303C10.3624 17.3232 9.88756 17.3232 9.59467 17.0303C9.30178 16.7374 9.30178 16.2626 9.59467 15.9697L13.5643 12L9.59467 8.03033C9.30178 7.73744 9.30178 7.26256 9.59467 6.96967Z" fill="#F28A2E"/>
</svg>
